#!OML:ASF H:\Punching\Project 1\Capture day 1\Session 1\female.ASF
:FULLY-SPECIFIED
:DEGREES
158
root -0.139255 14.9021 -1.8431 8.1957 -0.199371 -0.60417
lowerback 3.17901 -0.894193 0.324456
upperback -5.85231 -1.20195 -0.296416
thorax -7.92076 -0.622371 -0.372421
lowerneck -14.1726 1.24933 7.26364
upperneck 38.1968 1.00408 -3.80012
head 16.0324 0.936699 -2.78399
rclavicle -4.96962e-017 -1.09332e-014
rhumerus 32.4714 10.7536 -61.5644
rradius 65.6072
rwrist 0.0266467
rhand 31.8533 -36.4105
rfingers 7.12502
rthumb 55.365 -54.2818
lclavicle -4.96962e-017 -1.09332e-014
lhumerus 27.5524 -9.47913 56.758
lradius 79.9467
lwrist -8.99288
lhand 36.5452 26.7106
lfingers 7.12502
lthumb 59.4749 41.0306
rfemur -27.309 -6.40955 16.8046
rtibia 50.9357
rfoot -28.2997 -8.23855
rtoes -13.3619
lfemur -28.3556 1.19934 -16.7267
ltibia 50.8101
lfoot -25.439 9.33975
ltoes -13.5243
159
root -0.136701 14.9015 -1.84528 8.19031 -0.223993 -0.61695
lowerback 3.20591 -0.878184 0.331577
upperback -5.87074 -1.18003 -0.297656
thorax -7.9564 -0.612097 -0.379308
lowerneck -14.1007 1.25614 7.28335
upperneck 38.1006 1.01142 -3.79277
head 15.9662 0.941896 -2.77923
rclavicle -1.22998e-015 5.96354e-016
rhumerus 32.4002 10.7621 -61.5667
rradius 65.5953
rwrist 0.103227
rhand 31.7036 -36.2897
rfingers 7.12502
rthumb 55.2317 -54.2595
lclavicle -1.22998e-015 5.96354e-016
lhumerus 27.5335 -9.54234 56.7581
lradius 79.9378
lwrist -8.99069
lhand 36.5244 26.689
lfingers 7.12502
lthumb 59.457 41.0269
rfemur -27.31 -6.36404 16.8007
rtibia 50.921
rfoot -28.3031 -8.21874
rtoes -13.2423
lfemur -28.3508 1.20186 -16.726
ltibia 50.8179
lfoot -25.4406 9.38733
ltoes -13.5447
160
root -0.133395 14.9012 -1.8479 8.19277 -0.240403 -0.622228
lowerback 3.19445 -0.872805 0.34218
upperback -5.85642 -1.17234 -0.302347
thorax -7.93445 -0.609088 -0.391256
lowerneck -14.0754 1.27621 7.33469
upperneck 37.9736 1.03778 -3.81937
head 15.8979 0.953998 -2.79113
rclavicle 1.61513e-016 9.54166e-015
rhumerus 32.4076 10.7312 -61.5982
rradius 65.6013
rwrist 0.0902076
rhand 31.7315 -36.2933
rfingers 7.12502
rthumb 55.2565 -54.2448
lclavicle 1.61513e-016 9.54166e-015
lhumerus 27.5281 -9.54996 56.7386
lradius 79.9598
lwrist -8.99957
lhand 36.4882 26.7233
lfingers 7.12502
lthumb 59.4259 41.0925
rfemur -27.3205 -6.3395 16.7901
rtibia 50.907
rfoot -28.291 -8.22113
rtoes -13.248
lfemur -28.3713 1.19273 -16.734
ltibia 50.8279
lfoot -25.4603 9.41427
ltoes -13.5076
161
root -0.130618 14.9017 -1.84978 8.19639 -0.262329 -0.636962
lowerback 3.18299 -0.862282 0.361208
upperback -5.85568 -1.15703 -0.305013
thorax -7.92723 -0.602812 -0.406434
lowerneck -14.0356 1.28815 7.37463
upperneck 37.8657 1.05287 -3.83605
head 15.835 0.961593 -2.7991
rclavicle -1.92573e-015 -1.98785e-016
rhumerus 32.3834 10.7216 -61.6181
rradius 65.5991
rwrist 0.0895221
rhand 31.6919 -36.3522
rfingers 7.12502
rthumb 55.2212 -54.3297
lclavicle -1.92573e-015 -1.98785e-016
lhumerus 27.5297 -9.5813 56.7223
lradius 79.97
lwrist -8.97282
lhand 36.4618 26.696
lfingers 7.12502
lthumb 59.4031 41.0879
rfemur -27.3269 -6.29379 16.7921
rtibia 50.8825
rfoot -28.2813 -8.2409
rtoes -13.215
lfemur -28.3878 1.18846 -16.7311
ltibia 50.8396
lfoot -25.4431 9.47152
ltoes -13.5628
162
root -0.128061 14.9013 -1.85233 8.20783 -0.286731 -0.653933
lowerback 3.16938 -0.858365 0.365848
upperback -5.84892 -1.15081 -0.295767
thorax -7.91175 -0.599697 -0.400227
lowerneck -13.9947 1.31145 7.41692
upperneck 37.7386 1.09081 -3.86905
head 15.7642 0.976408 -2.81009
rclavicle -1.28962e-014 2.18663e-015
rhumerus 32.3986 10.7266 -61.629
rradius 65.5737
rwrist 0.124445
rhand 31.63 -36.2801
rfingers 7.12502
rthumb 55.1661 -54.298
lclavicle -1.28962e-014 2.18663e-015
lhumerus 27.5415 -9.57562 56.7165
lradius 79.955
lwrist -8.98932
lhand 36.4187 26.6769
lfingers 7.12502
lthumb 59.366 41.106
rfemur -27.3399 -6.2421 16.7956
rtibia 50.8531
rfoot -28.2667 -8.2408
rtoes -13.205
lfemur -28.4088 1.17789 -16.7251
ltibia 50.8434
lfoot -25.4543 9.50706
ltoes -13.5182
163
root -0.125685 14.9012 -1.85518 8.20694 -0.304929 -0.698596
lowerback 3.18092 -0.848445 0.402219
upperback -5.85065 -1.13402 -0.283595
thorax -7.92069 -0.593215 -0.409302
lowerneck -13.9284 1.32951 7.44012
upperneck 37.6047 1.11383 -3.86262
head 15.6828 0.987719 -2.80264
rclavicle 1.73937e-016 3.97569e-015
rhumerus 32.3747 10.7277 -61.6278
rradius 65.5709
rwrist 0.119526
rhand 31.6941 -36.3271
rfingers 7.12502
rthumb 55.2232 -54.3031
lclavicle 1.73937e-016 3.97569e-015
lhumerus 27.5259 -9.60694 56.7028
lradius 79.9642
lwrist -8.99613
lhand 36.3588 26.7342
lfingers 7.12502
lthumb 59.3145 41.2145
rfemur -27.3439 -6.17869 16.8317
rtibia 50.8202
rfoot -28.2513 -8.2713
rtoes -13.1829
lfemur -28.4182 1.1773 -16.6874
ltibia 50.8422
lfoot -25.4479 9.54656
ltoes -13.5569
164
root -0.122111 14.9017 -1.85625 8.19963 -0.315834 -0.667844
lowerback 3.17604 -0.83949 0.386976
upperback -5.83401 -1.12429 -0.302136
thorax -7.89981 -0.588098 -0.421421
lowerneck -13.9668 1.342 7.4878
upperneck 37.534 1.12305 -3.88532
head 15.658 0.993679 -2.81736
rclavicle 7.20594e-016 -5.96354e-016
rhumerus 32.3817 10.7364 -61.5618
rradius 65.5824
rwrist 0.0888889
rhand 31.6138 -36.3229
rfingers 7.12502
rthumb 55.1517 -54.3513
lclavicle 7.20594e-016 -5.96354e-016
lhumerus 27.6082 -9.6369 56.6835
lradius 79.9761
lwrist -8.98614
lhand 36.3888 26.7251
lfingers 7.12502
lthumb 59.3403 41.1798
rfemur -27.3258 -6.14892 16.7709
rtibia 50.7851
rfoot -28.236 -8.2786
rtoes -13.1944
lfemur -28.3936 1.14425 -16.7407
ltibia 50.8185
lfoot -25.4416 9.62217
ltoes -13.6036
165
root -0.119886 14.9026 -1.85812 8.20766 -0.337396 -0.685253
lowerback 3.14949 -0.855442 0.367897
upperback -5.84384 -1.14455 -0.263598
thorax -7.89385 -0.595625 -0.368601
lowerneck -13.8643 1.37787 7.48324
upperneck 37.4251 1.19492 -3.90529
head 15.5846 1.01852 -2.8089
rclavicle 5.24295e-015 -1.15295e-014
rhumerus 32.3789 10.7996 -61.6453
rradius 65.5349
rwrist 0.202923
rhand 31.6661 -36.3054
rfingers 7.12502
rthumb 55.1983 -54.2996
lclavicle 5.24295e-015 -1.15295e-014
lhumerus 27.5373 -9.60726 56.677
lradius 79.9887
lwrist -9.01695
lhand 36.2801 26.7236
lfingers 7.12502
lthumb 59.2466 41.2711
rfemur -27.3214 -6.07935 16.7741
rtibia 50.76
rfoot -28.2295 -8.29258
rtoes -13.1372
lfemur -28.3937 1.13449 -16.7324
ltibia 50.7975
lfoot -25.4427 9.66576
ltoes -13.61
166
root -0.116475 14.9044 -1.85944 8.20285 -0.354733 -0.674309
lowerback 3.15852 -0.845206 0.372227
upperback -5.85994 -1.13128 -0.274543
thorax -7.91673 -0.589783 -0.383553
lowerneck -13.8031 1.38449 7.5033
upperneck 37.3516 1.20432 -3.90645
head 15.5343 1.02396 -2.8086
rclavicle 2.07109e-014 -4.37326e-015
rhumerus 32.3161 10.8142 -61.6422
rradius 65.5244
rwrist 0.276454
rhand 31.6433 -36.1888
rfingers 7.12502
rthumb 55.178 -54.198
lclavicle 2.07109e-014 -4.37326e-015
lhumerus 27.5038 -9.65772 56.6752
lradius 79.9636
lwrist -9.01655
lhand 36.2584 26.6213
lfingers 7.12502
lthumb 59.2279 41.1873
rfemur -27.3046 -6.04093 16.7437
rtibia 50.732
rfoot -28.2402 -8.29653
rtoes -13.0218
lfemur -28.368 1.08691 -16.759
ltibia 50.765
lfoot -25.4512 9.72092
ltoes -13.5323
167
root -0.114206 14.9041 -1.86235 8.21135 -0.358436 -0.687471
lowerback 3.13829 -0.858183 0.367025
upperback -5.84657 -1.14777 -0.255072
thorax -7.89006 -0.596879 -0.358998
lowerneck -13.8144 1.42166 7.52603
upperneck 37.2775 1.2597 -3.92598
head 15.5051 1.04622 -2.80949
rclavicle -1.34677e-014 2.98177e-015
rhumerus 32.3458 10.8546 -61.6413
rradius 65.5156
rwrist 0.318624
rhand 31.6242 -36.166
rfingers 7.12502
rthumb 55.1609 -54.1876
lclavicle -1.34677e-014 2.98177e-015
lhumerus 27.5173 -9.62638 56.6583
lradius 79.9661
lwrist -9.04956
lhand 36.2105 26.6627
lfingers 7.12502
lthumb 59.1866 41.2695
rfemur -27.3173 -6.00013 16.7477
rtibia 50.7132
rfoot -28.2086 -8.33878
rtoes -13.0574
lfemur -28.3827 1.05809 -16.7559
ltibia 50.7462
lfoot -25.4261 9.78354
ltoes -13.5901
168
root -0.111618 14.905 -1.86348 8.2059 -0.388435 -0.71819
lowerback 3.12563 -0.852238 0.384964
upperback -5.84127 -1.13753 -0.24063
thorax -7.87686 -0.592417 -0.355155
lowerneck -13.7652 1.43716 7.52258
upperneck 37.1886 1.27915 -3.90291
head 15.4507 1.05544 -2.79252
rclavicle -9.93923e-016 1.03368e-014
rhumerus 32.3325 10.8798 -61.6355
rradius 65.5244
rwrist 0.328656
rhand 31.6693 -36.2263
rfingers 7.12502
rthumb 55.2012 -54.2184
lclavicle -9.93923e-016 1.03368e-014
lhumerus 27.5072 -9.62784 56.6636
lradius 79.9605
lwrist -9.07024
lhand 36.2286 26.5885
lfingers 7.12502
lthumb 59.2022 41.1799
rfemur -27.3027 -5.93691 16.7646
rtibia 50.6815
rfoot -28.2048 -8.34329
rtoes -12.941
lfemur -28.3579 1.04062 -16.7344
ltibia 50.7221
lfoot -25.4379 9.8367
ltoes -13.5615
